<?xml version="1.0" standalone="no"?>
<!DOCTYPE svg PUBLIC "-//W3C//DTD SVG 20010904//EN"
 "http://www.w3.org/TR/2001/REC-SVG-20010904/DTD/svg10.dtd">
<svg version="1.0" xmlns="http://www.w3.org/2000/svg"
 width="512.000000pt" height="512.000000pt" viewBox="0 0 512.000000 512.000000"
 preserveAspectRatio="xMidYMid meet">

<g transform="translate(0.000000,512.000000) scale(0.100000,-0.100000)"
fill="#000000" stroke="none">
<path d="M2321 5109 c-481 -43 -982 -247 -1367 -556 -513 -414 -839 -998 -936
-1678 -20 -140 -17 -504 6 -660 39 -278 121 -541 247 -794 331 -667 931 -1152
1657 -1340 509 -132 1067 -98 1560 94 349 137 639 330 907 606 205 210 340
404 465 663 119 246 190 474 232 741 31 200 31 550 0 750 -43 273 -114 500
-237 750 -123 251 -262 448 -459 652 -209 217 -420 372 -691 509 -431 217
-898 306 -1384 263z m509 -433 c491 -66 932 -289 1270 -642 299 -313 484 -682
565 -1129 26 -142 31 -442 10 -605 -123 -976 -879 -1731 -1857 -1856 -161 -20
-461 -15 -603 11 -359 65 -653 191 -932 398 -409 304 -696 753 -807 1257 -39
178 -49 301 -43 514 5 197 18 296 62 467 217 847 936 1478 1810 1588 113 14
410 12 525 -3z"/>
<path d="M2395 4473 c-284 -33 -478 -89 -701 -201 -379 -191 -679 -498 -864
-884 -84 -176 -129 -318 -167 -528 -24 -133 -24 -467 0 -600 38 -210 83 -352
167 -528 192 -400 504 -712 902 -901 179 -86 320 -130 528 -168 133 -24 467
-24 600 0 210 38 351 83 529 168 740 354 1173 1138 1076 1949 -78 658 -482
1226 -1070 1505 -227 108 -404 159 -647 185 -91 9 -286 11 -353 3z m279 -1093
c60 -41 90 -93 94 -164 4 -72 -12 -119 -59 -165 -46 -46 -93 -63 -165 -59 -72
4 -119 31 -162 92 -24 35 -27 49 -27 117 0 70 3 81 30 120 45 64 104 91 186
87 50 -3 75 -10 103 -28z m-1087 -205 c133 -67 159 -230 53 -335 -105 -106
-268 -81 -334 51 -43 88 -30 176 39 244 68 68 156 83 242 40z m2107 13 c81
-25 146 -118 146 -210 0 -51 -46 -135 -91 -165 -92 -60 -192 -51 -269 26 -110
110 -79 276 65 342 47 22 92 24 149 7z m-920 -524 c115 -173 214 -313 220
-311 6 3 126 79 266 170 140 92 255 165 257 164 1 -2 -22 -221 -50 -487 l-53
-485 -854 0 -855 0 -66 485 c-36 267 -64 486 -63 488 1 2 123 -72 270 -164
148 -91 274 -168 280 -171 6 -2 105 138 220 311 115 174 211 315 214 315 3 0
99 -141 214 -315z"/>
</g>
</svg>
